<?xml version="1.0" encoding="UTF-8" standalone="no"?>
<svg width="81px" height="80px" viewBox="0 0 81 80" version="1.1" xmlns="http://www.w3.org/2000/svg" xmlns:xlink="http://www.w3.org/1999/xlink" xmlns:sketch="http://www.bohemiancoding.com/sketch/ns">
    <!-- Generator: Sketch 3.3.1 (12002) - http://www.bohemiancoding.com/sketch -->
    <title>Check</title>
    <desc>Created with Sketch.</desc>
    <defs></defs>
    <g id="Page-1" stroke="none" stroke-width="1" fill="none" fill-rule="evenodd" sketch:type="MSPage">
        <g id="Check" sketch:type="MSLayerGroup" fill="#D96AA4">
            <path d="M36.2553593,43.9101246 L73.9289322,6.23655166 L81,13.3076195 L36.3076195,58 L36.2553593,57.9477398 L36.2030991,58 L15.7219067,37.5188076 L22.7929745,30.4477398 L36.2553593,43.9101246 Z M61.9989282,0 L9.00214358,0 C4.02203754,0 0,4.03039696 0,9.00214358 L0,70.9978564 C0,75.9779625 4.03039696,80 9.00214358,80 L70.9978564,80 C75.9779625,80 80,75.969603 80,70.9978564 L80,22.5010718 L80,36 L71,36 L71,71 L9,71 L9,9 L53,9 L53,0 L61.9989282,0 Z" id="Rectangle-5" sketch:type="MSShapeGroup"></path>
        </g>
    </g>
</svg>