<?xml version="1.0" encoding="UTF-8" standalone="no"?>
<svg width="80px" height="80px" viewBox="0 0 80 80" version="1.1" xmlns="http://www.w3.org/2000/svg" xmlns:xlink="http://www.w3.org/1999/xlink" xmlns:sketch="http://www.bohemiancoding.com/sketch/ns">
    <!-- Generator: Sketch 3.3.1 (12002) - http://www.bohemiancoding.com/sketch -->
    <title>Compass</title>
    <desc>Created with Sketch.</desc>
    <defs></defs>
    <g id="Page-1" stroke="none" stroke-width="1" fill="none" fill-rule="evenodd" sketch:type="MSPage">
        <g id="Compass" sketch:type="MSLayerGroup" transform="translate(0.065430, 0.565430)" fill="#D96AA4">
            <path d="M39.5,79.2617188 C61.3152476,79.2617188 79,61.5769664 79,39.7617188 C79,17.9464711 61.3152476,0.26171875 39.5,0.26171875 C17.6847524,0.26171875 0,17.9464711 0,39.7617188 C0,61.5769664 17.6847524,79.2617188 39.5,79.2617188 Z M30.8574219,30.2451172 L63.5859375,16.0234375 L48.5351562,48.6123047 L15.4140625,63.5 L30.8574219,30.2451172 Z M39.5,43.9345703 C41.6730032,43.9345703 43.4345703,42.1730032 43.4345703,40 C43.4345703,37.8269968 41.6730032,36.0654297 39.5,36.0654297 C37.3269968,36.0654297 35.5654297,37.8269968 35.5654297,40 C35.5654297,42.1730032 37.3269968,43.9345703 39.5,43.9345703 Z" id="Oval-1" sketch:type="MSShapeGroup"></path>
        </g>
    </g>
</svg>