<?xml version="1.0" encoding="UTF-8" standalone="no"?>
<svg width="81px" height="74px" viewBox="0 0 81 74" version="1.1" xmlns="http://www.w3.org/2000/svg" xmlns:xlink="http://www.w3.org/1999/xlink" xmlns:sketch="http://www.bohemiancoding.com/sketch/ns">
    <!-- Generator: Sketch 3.3.1 (12002) - http://www.bohemiancoding.com/sketch -->
    <title>Like</title>
    <desc>Created with Sketch.</desc>
    <defs></defs>
    <g id="Page-1" stroke="none" stroke-width="1" fill="none" fill-rule="evenodd" sketch:type="MSPage">
        <g id="Like" sketch:type="MSLayerGroup" fill="#D96AA4">
            <path d="M22.1829606,32.4868568 C22.1829606,28.6179381 24.4349043,23.3099157 27.2201386,20.6239972 L48.0691281,0.518440247 L53.7633534,5.61332178 C53.7633534,5.61332178 50.9577008,19.1299973 50.3384,25.4815598 C55.7320248,25.4815598 75.6132813,25.0286465 75.6132813,25.0286465 C75.6132813,25.0286465 76.7313474,25.4588259 78.4472657,27.0282116 C80.0253907,28.471571 79.5986895,29.3543071 80.0722657,31.3387585 C80.2485536,32.0774669 80.4027362,37.6193183 80.0722657,39.7743073 C79.0501375,46.4395766 75.3499439,50.696907 74.1269532,54.7315521 C73.1482483,57.9602987 71.8287374,60.692995 71.0106355,62.7291679 C69.6826702,66.0343391 69.0944024,67.6488724 69.0944024,67.6488724 C68.3754003,70.6249537 64.6576033,73.0680632 60.7908994,73.1057061 L29.1845951,73.4133979 C25.3176991,73.4510426 22.1829606,70.3506615 22.1829606,66.4762627 L22.1829606,32.4868568 Z M0,29 L15,29 L15,73 L0,73 L0,29 Z" id="Rectangle-10" sketch:type="MSShapeGroup"></path>
        </g>
    </g>
</svg>